<?xml version="1.0" encoding="UTF-8"?>
<svg xmlns="http://www.w3.org/2000/svg" width="154" height="179" viewBox="0 0 154 179" fill="none">
  <path fill-rule="evenodd" clip-rule="evenodd" d="M27.7955 133.56L12.3125 163.42L32.5225 160.54L42.3625 179L57.7295 149.363C54.5186 148.513 51.3269 147.439 48.1735 146.133C40.541 142.972 33.7112 138.691 27.7955 133.56ZM92.3403 150.182C103.489 147.794 114.002 142.878 123.001 135.799L137.323 163.42L117.123 160.54L107.283 179L92.3403 150.182Z" fill="#337BDD"></path>
  <path d="M76.7427 4.43994C116.823 4.43994 149.433 37.0499 149.433 77.1299C149.433 117.21 116.823 149.82 76.7427 149.82C36.6627 149.82 4.05273 117.21 4.05273 77.1299C4.04273 37.0499 36.6527 4.43994 76.7427 4.43994ZM76.7427 0.439941C34.3827 0.439941 0.0527344 34.7799 0.0527344 77.1299C0.0527344 119.49 34.3927 153.82 76.7427 153.82C119.093 153.82 153.433 119.48 153.433 77.1299C153.433 34.7799 119.093 0.439941 76.7427 0.439941Z" fill="#337BDD"></path>
  <path d="M76.7427 9.10999C114.253 9.10999 144.763 39.63 144.763 77.13C144.763 114.64 114.243 145.15 76.7427 145.15C39.2427 145.15 8.72266 114.63 8.72266 77.13C8.71266 39.62 39.2327 9.10999 76.7427 9.10999ZM76.7427 8.10999C38.6227 8.10999 7.72266 39.01 7.72266 77.13C7.72266 115.25 38.6227 146.15 76.7427 146.15C114.863 146.15 145.763 115.25 145.763 77.13C145.763 39.01 114.863 8.10999 76.7427 8.10999Z" fill="#337BDD"></path>
  <path d="M76.7427 9.10999C114.253 9.10999 144.763 39.63 144.763 77.13C144.763 114.64 114.243 145.15 76.7427 145.15C39.2427 145.15 8.72266 114.63 8.72266 77.13C8.71266 39.62 39.2327 9.10999 76.7427 9.10999ZM76.7427 8.10999C38.6227 8.10999 7.72266 39.01 7.72266 77.13C7.72266 115.25 38.6227 146.15 76.7427 146.15C114.863 146.15 145.763 115.25 145.763 77.13C145.763 39.01 114.863 8.10999 76.7427 8.10999Z" fill="#337BDD"></path>
  <path d="M48.8922 30.4999C48.6222 30.8599 48.0722 31.5199 47.2522 32.0599C46.3322 32.6599 45.4322 32.9299 44.4622 32.7499C43.6122 32.5899 42.7522 31.9999 42.1322 31.0499C40.9522 29.2399 41.3222 27.0999 43.3422 25.7699C44.0422 25.3099 44.6922 25.0999 45.0322 25.0499L45.2622 25.8099C44.8422 25.8799 44.3622 26.0299 43.7522 26.4299C42.2822 27.3999 41.9222 28.9499 42.9222 30.4699C43.9322 31.9999 45.4522 32.2999 46.8622 31.3699C47.3722 31.0299 47.6722 30.7299 47.7922 30.5199L46.6022 28.7199L45.3722 29.5299L44.9622 28.8999L46.9522 27.5899L48.8922 30.4999Z" fill="#337BDD"></path>
  <path d="M49.8329 22.2L51.6029 26.11C52.2729 27.59 53.2129 27.92 54.0929 27.52C55.0729 27.08 55.4029 26.15 54.7529 24.69L52.9829 20.78L53.8429 20.39L55.5829 24.24C56.5029 26.27 55.8029 27.58 54.3729 28.23C53.0229 28.84 51.6529 28.53 50.7229 26.48L48.9629 22.59L49.8329 22.2Z" fill="#337BDD"></path>
  <path d="M60.292 23.43L60.182 25.83L59.252 26.09L59.672 18.45L60.762 18.15L65.092 24.46L64.132 24.73L62.772 22.75L60.292 23.43ZM62.382 22.09L61.132 20.27C60.852 19.86 60.632 19.47 60.412 19.1L60.392 19.11C60.402 19.55 60.412 20.01 60.392 20.47L60.272 22.68L62.382 22.09Z" fill="#337BDD"></path>
  <path d="M67.1123 16.8499C67.5723 16.6899 68.2323 16.5599 68.8723 16.4699C69.8623 16.3399 70.5223 16.4399 71.0223 16.7899C71.4223 17.0599 71.6923 17.5299 71.7623 18.0799C71.8823 19.0299 71.3623 19.7299 70.6423 20.0799V20.1099C71.2223 20.2299 71.6123 20.6999 71.8823 21.4199C72.2423 22.3899 72.5023 23.06 72.6923 23.32L71.7323 23.4399C71.5923 23.2499 71.3523 22.6599 71.0323 21.7899C70.6923 20.8299 70.2623 20.4999 69.4123 20.5799L68.5423 20.6899L68.9423 23.8L68.0123 23.9199L67.1123 16.8499ZM68.4523 20L69.4023 19.8799C70.3923 19.7499 70.9523 19.1299 70.8423 18.3099C70.7223 17.3799 70.0023 17.06 69.0223 17.18C68.5723 17.24 68.2623 17.3199 68.1123 17.3799L68.4523 20Z" fill="#337BDD"></path>
  <path d="M76.9026 20.92L76.1126 23.18L75.1426 23.16L77.7226 15.96L78.8526 15.98L81.2026 23.26L80.2026 23.24L79.4726 20.95L76.9026 20.92ZM79.2926 20.23L78.6226 18.13C78.4726 17.65 78.3726 17.22 78.2726 16.8H78.2526C78.1326 17.23 78.0126 17.67 77.8626 18.1L77.1126 20.18L79.2926 20.23Z" fill="#337BDD"></path>
  <path d="M84.1328 23.5799L85.3728 16.4399L86.3828 16.6199L88.0428 20.6299C88.4228 21.5599 88.7128 22.3799 88.9228 23.1699L88.9428 23.1599C89.0228 22.1899 89.1528 21.3199 89.3528 20.2099L89.8728 17.2199L90.7428 17.3699L89.5028 24.5099L88.5728 24.3499L86.9428 20.3299C86.5828 19.4499 86.2528 18.5499 86.0228 17.7099H85.9928C85.8928 18.6199 85.7628 19.4799 85.5528 20.6699L85.0228 23.7199L84.1328 23.5799Z" fill="#337BDD"></path>
  <path d="M96.2228 19.7599L94.1328 19.0699L94.3828 18.3199L99.4728 20.0099L99.2228 20.7599L97.1228 20.0599L95.0928 26.1799L94.1928 25.8799L96.2228 19.7599Z" fill="#337BDD"></path>
  <path d="M104.552 26.5199L102.022 25.2899L100.882 27.6399L103.712 29.0099L103.372 29.7199L99.7021 27.9399L102.862 21.4199L106.382 23.1299L106.042 23.8399L103.362 22.5399L102.362 24.5999L104.892 25.8299L104.552 26.5199Z" fill="#337BDD"></path>
  <path d="M111.072 30.52L108.722 28.97L107.292 31.15L109.912 32.87L109.482 33.53L106.082 31.29L110.062 25.24L113.332 27.39L112.902 28.05L110.412 26.41L109.152 28.32L111.502 29.87L111.072 30.52Z" fill="#337BDD"></path>
  <path d="M49.6327 131.73C49.2527 131.69 48.5827 131.46 47.8327 130.99C46.1127 129.89 45.5127 127.98 46.7927 125.98C48.0127 124.07 50.1327 123.6 52.0227 124.81C52.7827 125.3 53.1527 125.77 53.2927 126.01L52.6927 126.53C52.4827 126.2 52.1327 125.81 51.6227 125.49C50.1927 124.58 48.6627 124.88 47.6327 126.48C46.6827 127.97 46.9227 129.48 48.4127 130.43C48.8927 130.74 49.4427 130.95 49.8627 131L49.6327 131.73Z" fill="#337BDD"></path>
  <path d="M57.882 132.16L55.302 131.03L54.252 133.42L57.122 134.68L56.812 135.4L53.082 133.76L55.992 127.13L59.572 128.7L59.252 129.42L56.522 128.22L55.602 130.32L58.182 131.45L57.882 132.16Z" fill="#337BDD"></path>
  <path d="M62.5128 129.83C62.9928 129.86 63.6629 129.98 64.2829 130.15C65.2429 130.41 65.8228 130.75 66.1528 131.26C66.4228 131.67 66.4928 132.2 66.3428 132.74C66.0928 133.66 65.3528 134.12 64.5528 134.17L64.5428 134.2C65.0328 134.53 65.2228 135.12 65.1928 135.89C65.1628 136.93 65.1428 137.64 65.2228 137.95L64.2928 137.7C64.2328 137.47 64.2329 136.83 64.2729 135.91C64.3229 134.89 64.0428 134.43 63.2328 134.18L62.3829 133.95L61.5728 136.98L60.6729 136.74L62.5128 129.83ZM62.5629 133.26L63.4828 133.51C64.4428 133.77 65.2028 133.4 65.4128 132.6C65.6528 131.7 65.1028 131.13 64.1528 130.86C63.7128 130.74 63.3929 130.7 63.2429 130.7L62.5629 133.26Z" fill="#337BDD"></path>
  <path d="M71.2427 132.36L69.0527 132.13L69.1327 131.34L74.4627 131.91L74.3827 132.7L72.1827 132.46L71.4927 138.87L70.5527 138.77L71.2427 132.36Z" fill="#337BDD"></path>
  <path d="M78.0325 131.89L78.1425 139.13L77.2125 139.14L77.1025 131.9L78.0325 131.89Z" fill="#337BDD"></path>
  <path d="M81.502 131.73L85.372 131.23L85.472 132.01L82.532 132.39L82.842 134.78L85.562 134.43L85.662 135.2L82.942 135.55L83.362 138.8L82.432 138.92L81.502 131.73Z" fill="#337BDD"></path>
  <path d="M89.3827 130.3L91.1627 137.32L90.2527 137.55L88.4727 130.53L89.3827 130.3Z" fill="#337BDD"></path>
  <path d="M97.5824 131.56L94.9524 132.58L95.8924 135.02L98.8224 133.89L99.1024 134.62L95.3024 136.09L92.6924 129.33L96.3424 127.92L96.6224 128.65L93.8424 129.72L94.6724 131.86L97.3024 130.84L97.5824 131.56Z" fill="#337BDD"></path>
  <path d="M99.1924 126.7C99.6424 126.34 100.192 125.93 100.822 125.56C101.982 124.88 102.962 124.66 103.802 124.84C104.662 125.02 105.412 125.55 106.002 126.56C106.602 127.58 106.782 128.6 106.542 129.51C106.302 130.44 105.532 131.32 104.322 132.04C103.752 132.38 103.252 132.64 102.822 132.83L99.1924 126.7ZM103.262 131.73C103.492 131.65 103.792 131.48 104.102 131.29C105.822 130.27 106.182 128.76 105.192 127.07C104.332 125.59 102.942 125.15 101.242 126.16C100.822 126.41 100.532 126.63 100.352 126.8L103.262 131.73Z" fill="#337BDD"></path>
  <path d="M15.2129 77.4399L18.3329 75.9L18.8329 72.45L21.2629 74.95L24.7029 74.36L23.0829 77.4399L24.7029 80.53L21.2629 79.9399L18.8329 82.43L18.3329 78.9799L15.2129 77.4399Z" fill="#337BDD"></path>
  <path d="M21.4326 99.38L23.5726 98.33L23.9126 95.97L25.5726 97.68L27.9226 97.28L26.8126 99.38L27.9226 101.49L25.5726 101.09L23.9126 102.8L23.5726 100.44L21.4326 99.38Z" fill="#337BDD"></path>
  <path d="M21.4326 56.64L23.5726 55.58L23.9126 53.22L25.5726 54.93L27.9226 54.53L26.8126 56.64L27.9226 58.74L25.5726 58.34L23.9126 60.05L23.5726 57.69L21.4326 56.64Z" fill="#337BDD"></path>
  <path d="M138.072 78.58L134.952 80.12L134.452 83.57L132.012 81.07L128.582 81.66L130.202 78.58L128.582 75.49L132.012 76.08L134.452 73.59L134.952 77.04L138.072 78.58Z" fill="#337BDD"></path>
  <path d="M131.853 56.64L129.713 57.69L129.373 60.05L127.703 58.34L125.353 58.74L126.463 56.64L125.353 54.53L127.703 54.93L129.373 53.22L129.713 55.58L131.853 56.64Z" fill="#337BDD"></path>
  <path d="M131.853 99.38L129.713 100.44L129.373 102.8L127.703 101.09L125.353 101.49L126.463 99.38L125.353 97.28L127.703 97.68L129.373 95.97L129.713 98.33L131.853 99.38Z" fill="#337BDD"></path>
  <path fill-rule="evenodd" clip-rule="evenodd" d="M92.3204 118.555C115.209 109.961 126.798 84.438 118.204 61.5486C109.61 38.6588 84.0874 27.0699 61.1981 35.6639C38.3084 44.258 26.7194 69.7807 35.3135 92.67C43.9075 115.56 69.4302 127.149 92.3204 118.555ZM58.4321 62.01V85.12H55.4521V62.01H58.4321ZM68.5824 83C66.5224 83 64.5724 82.31 63.2324 81.49L62.4824 84C63.7224 84.82 66.1524 85.47 68.3824 85.47C73.8324 85.47 76.4724 82.39 76.4724 78.82C76.4724 75.42 74.4824 73.54 70.5724 72.03C67.3924 70.79 65.9824 69.73 65.9824 67.57C65.9824 66 67.1824 64.11 70.3324 64.11C72.4224 64.11 73.9724 64.8 74.7224 65.21L75.5424 62.78C74.5124 62.2 72.8024 61.65 70.4324 61.65C65.9424 61.65 62.9624 64.32 62.9624 67.92C62.9624 71.18 65.2924 73.13 69.0624 74.47C72.1824 75.67 73.4124 76.9 73.4124 79.06C73.4124 81.39 71.6324 83 68.5824 83ZM100.303 73.33C100.303 81.28 95.4726 85.5 89.5726 85.5C83.4726 85.5 79.1826 80.77 79.1826 73.77C79.1826 66.43 83.7426 61.63 89.9126 61.63C96.2226 61.64 100.303 66.47 100.303 73.33ZM82.3626 73.71C82.3626 78.65 85.0326 83.07 89.7326 83.07C94.4626 83.07 97.1426 78.72 97.1426 73.47C97.1426 68.88 94.7426 64.08 89.7726 64.08C84.8326 64.07 82.3626 68.63 82.3626 73.71ZM63.1325 100.75C62.6425 100.8 62.2825 100.83 61.9725 100.8H61.9625V101.99C62.3125 102.01 62.7725 101.99 63.2925 101.91C64.4425 101.77 65.5725 101.28 66.3925 100.48C67.4325 99.46 68.2225 97.82 68.2225 95.48C68.2225 92.76 66.8825 90.99 64.7025 90.99C62.5225 90.99 61.0625 92.76 61.0625 94.78C61.0625 96.6 62.2925 98.04 64.2125 98.04C65.2825 98.04 66.1325 97.61 66.7225 96.89H66.7725C66.5725 98.15 66.0625 99.08 65.3625 99.72C64.7525 100.29 63.9725 100.64 63.1325 100.75ZM64.5425 96.93C63.2925 96.93 62.4925 96 62.4925 94.67C62.4925 93.17 63.3625 92.08 64.5925 92.09C66.1025 92.09 66.7725 93.48 66.7725 95.3C66.7725 95.53 66.7225 95.69 66.6425 95.82C66.2625 96.46 65.5125 96.93 64.5425 96.93ZM76.6223 96.38C76.6223 100 75.2823 102 72.9223 102C70.8423 102 69.4323 100.05 69.4023 96.53C69.4023 92.96 70.9423 90.99 73.1023 90.99C75.3423 90.99 76.6223 92.98 76.6223 96.38ZM70.8323 96.54C70.8323 99.31 71.6823 100.88 72.9923 100.88C74.4623 100.88 75.1723 99.16 75.1723 96.44C75.1723 93.82 74.5023 92.1 73.0123 92.1C71.7523 92.1 70.8323 93.64 70.8323 96.54ZM81.3227 102C83.6827 102 85.0227 100 85.0227 96.38C85.0227 92.98 83.7427 90.99 81.5027 90.99C79.3427 90.99 77.8027 92.96 77.8027 96.53C77.8327 100.05 79.2427 102 81.3227 102ZM81.4027 100.88C80.0927 100.88 79.2427 99.31 79.2427 96.54C79.2427 93.64 80.1527 92.1 81.4227 92.1C82.9127 92.1 83.5827 93.82 83.5827 96.44C83.5827 99.16 82.8727 100.88 81.4027 100.88ZM89.4823 92.51H89.4523L87.6023 93.51L87.3223 92.41L89.6523 91.16H90.8823V101.81H89.4923V92.51H89.4823ZM117.162 77.14C117.162 54.85 99.0323 36.72 76.7423 36.72C54.4523 36.72 36.3223 54.85 36.3223 77.14C36.3223 99.43 54.4523 117.56 76.7423 117.56C99.0323 117.56 117.162 99.43 117.162 77.14ZM35.3223 77.14C35.3223 54.26 53.8723 35.72 76.7423 35.72C99.6123 35.72 118.152 54.26 118.162 77.14C118.162 100.02 99.6223 118.56 76.7423 118.56C53.8623 118.56 35.3223 100.01 35.3223 77.14Z" fill="#337BDD"></path>
</svg>
