<svg xmlns="http://www.w3.org/2000/svg" width="125" height="125" viewBox="0 0 125 125" fill="none"><rect width="124.027" height="124.027" rx="62.0134" fill="url(#paint0_linear_237_235)"></rect><path d="M88.2039 48.2353V40.5882C88.2039 38.0583 86.1456 36 83.6157 36H40.5882C38.0583 36 36 38.0583 36 40.5882V48.2353H88.2039ZM71.2784 42.1176H80.4549C81.2995 42.1176 81.9843 42.8024 81.9843 43.6471C81.9843 44.4917 81.2995 45.1765 80.4549 45.1765H71.2784C70.4338 45.1765 69.749 44.4917 69.749 43.6471C69.749 42.8024 70.4338 42.1176 71.2784 42.1176ZM55.9843 42.1176C56.829 42.1176 57.5137 42.8024 57.5137 43.6471C57.5137 44.4917 56.829 45.1765 55.9843 45.1765C55.1397 45.1765 54.4549 44.4917 54.4549 43.6471C54.4549 42.8024 55.1397 42.1176 55.9843 42.1176ZM49.8667 42.1176C50.7113 42.1176 51.3961 42.8024 51.3961 43.6471C51.3961 44.4917 50.7113 45.1765 49.8667 45.1765C49.022 45.1765 48.3373 44.4917 48.3373 43.6471C48.3373 42.8024 49.022 42.1176 49.8667 42.1176ZM43.749 42.1176C44.5937 42.1176 45.2784 42.8024 45.2784 43.6471C45.2784 44.4917 44.5937 45.1765 43.749 45.1765C42.9044 45.1765 42.2196 44.4917 42.2196 43.6471C42.2196 42.8024 42.9044 42.1176 43.749 42.1176ZM36 51.2941V83.4118C36 85.9417 38.0583 88 40.5882 88H83.6157C86.1456 88 88.2039 85.9417 88.2039 83.4118V51.2941H36ZM53.8809 73.041C54.5405 73.5687 54.6474 74.5311 54.1198 75.1907C53.5922 75.8501 52.6296 75.9572 51.9701 75.4295L44.3231 69.3118C43.5585 68.7004 43.5579 67.5352 44.3231 66.9233L51.9701 60.8056C52.6294 60.278 53.592 60.3848 54.1198 61.0444C54.6474 61.704 54.5405 62.6665 53.8809 63.1941L47.7267 68.1176L53.8809 73.041ZM68.0959 58.0143L58.9195 79.426C58.5868 80.2022 57.6879 80.5622 56.9112 80.2293C56.1349 79.8966 55.7752 78.9974 56.108 78.221L65.2845 56.8093C65.6173 56.0329 66.5164 55.6733 67.2927 56.006C68.069 56.3387 68.4287 57.2378 68.0959 58.0143ZM79.8809 69.3119L72.2338 75.4296C71.5753 75.9565 70.6126 75.8513 70.0842 75.1908C69.5565 74.5312 69.6634 73.5687 70.3231 73.0411L76.4772 68.1176L70.3231 63.1943C69.6634 62.6666 69.5565 61.7042 70.0842 61.0446C70.6117 60.385 71.5742 60.2781 72.2338 60.8058L79.8809 66.9235C80.6455 67.5349 80.646 68.6999 79.8809 69.3119Z" fill="white"></path><defs><linearGradient id="paint0_linear_237_235" x1="-19.3521" y1="4.15302" x2="140.452" y2="118.639" gradientUnits="userSpaceOnUse"><stop stop-color="#FF9AD5"></stop><stop offset="1" stop-color="#FC80C8"></stop></linearGradient></defs></svg>