<svg xmlns="http://www.w3.org/2000/svg" width="125" height="125" viewBox="0 0 125 125" fill="none"><rect width="124.027" height="124.027" rx="62.0134" fill="url(#paint0_linear_237_233)"></rect><path d="M71.7365 49.6607C70.2274 49.6588 68.7807 49.0586 67.7137 47.9915C66.6466 46.9245 66.0463 45.4778 66.0445 43.9687V36H46.6919C45.1823 36 43.7346 36.5997 42.6671 37.6671C41.5997 38.7346 41 40.1823 41 41.6919V80.3971C41 81.9067 41.5997 83.3545 42.6671 84.4219C43.7346 85.4894 45.1823 86.0891 46.6919 86.0891H69.4597C67.4247 86.0912 65.4263 85.5478 63.6726 84.5155C61.9189 83.4831 60.474 81.9995 59.4883 80.2192C58.5026 78.4388 58.0122 76.4268 58.0681 74.3926C58.124 72.3583 58.7241 70.3763 59.8061 68.6527C60.888 66.9292 62.4122 65.5272 64.2199 64.5926C66.0277 63.6581 68.0529 63.2253 70.0847 63.3392C72.1165 63.453 74.0807 64.1095 75.7726 65.2401C77.4646 66.3708 78.8226 67.9343 79.7052 69.768V49.6607H71.7365ZM48.9687 46.2455H61.491C61.7929 46.2455 62.0825 46.3654 62.2959 46.5789C62.5094 46.7924 62.6294 47.082 62.6294 47.3839C62.6294 47.6858 62.5094 47.9754 62.2959 48.1888C62.0825 48.4023 61.7929 48.5223 61.491 48.5223H48.9687C48.6668 48.5223 48.3772 48.4023 48.1638 48.1888C47.9503 47.9754 47.8303 47.6858 47.8303 47.3839C47.8303 47.082 47.9503 46.7924 48.1638 46.5789C48.3772 46.3654 48.6668 46.2455 48.9687 46.2455ZM54.6607 78.1203H48.9687C48.6668 78.1203 48.3772 78.0004 48.1638 77.7869C47.9503 77.5734 47.8303 77.2839 47.8303 76.982C47.8303 76.68 47.9503 76.3905 48.1638 76.177C48.3772 75.9635 48.6668 75.8436 48.9687 75.8436H54.6607C54.9626 75.8436 55.2521 75.9635 55.4656 76.177C55.6791 76.3905 55.799 76.68 55.799 76.982C55.799 77.2839 55.6791 77.5734 55.4656 77.7869C55.2521 78.0004 54.9626 78.1203 54.6607 78.1203ZM47.8303 71.29C47.8303 70.9881 47.9503 70.6985 48.1638 70.4851C48.3772 70.2716 48.6668 70.1516 48.9687 70.1516H53.5223C53.8242 70.1516 54.1137 70.2716 54.3272 70.4851C54.5407 70.6985 54.6607 70.9881 54.6607 71.29C54.6607 71.5919 54.5407 71.8815 54.3272 72.095C54.1137 72.3085 53.8242 72.4284 53.5223 72.4284H48.9687C48.6668 72.4284 48.3772 72.3085 48.1638 72.095C47.9503 71.8815 47.8303 71.5919 47.8303 71.29ZM55.799 66.7365H48.9687C48.6668 66.7365 48.3772 66.6165 48.1638 66.403C47.9503 66.1896 47.8303 65.9 47.8303 65.5981C47.8303 65.2962 47.9503 65.0066 48.1638 64.7931C48.3772 64.5796 48.6668 64.4597 48.9687 64.4597H55.799C56.101 64.4597 56.3905 64.5796 56.604 64.7931C56.8175 65.0066 56.9374 65.2962 56.9374 65.5981C56.9374 65.9 56.8175 66.1896 56.604 66.403C56.3905 66.6165 56.101 66.7365 55.799 66.7365ZM71.7365 61.0445H48.9687C48.6668 61.0445 48.3772 60.9246 48.1638 60.7111C47.9503 60.4976 47.8303 60.2081 47.8303 59.9061C47.8303 59.6042 47.9503 59.3147 48.1638 59.1012C48.3772 58.8877 48.6668 58.7678 48.9687 58.7678H71.7365C72.0384 58.7678 72.3279 58.8877 72.5414 59.1012C72.7549 59.3147 72.8749 59.6042 72.8749 59.9061C72.8749 60.2081 72.7549 60.4976 72.5414 60.7111C72.3279 60.9246 72.0384 61.0445 71.7365 61.0445ZM71.7365 55.3526H52.3839C52.082 55.3526 51.7924 55.2327 51.5789 55.0192C51.3654 54.8057 51.2455 54.5161 51.2455 54.2142C51.2455 53.9123 51.3654 53.6227 51.5789 53.4092C51.7924 53.1958 52.082 53.0758 52.3839 53.0758H71.7365C72.0384 53.0758 72.3279 53.1958 72.5414 53.4092C72.7549 53.6227 72.8749 53.9123 72.8749 54.2142C72.8749 54.5161 72.7549 54.8057 72.5414 55.0192C72.3279 55.2327 72.0384 55.3526 71.7365 55.3526Z" fill="white"></path><path d="M79.0384 46.7166L68.9887 36.6669C68.7955 36.4763 68.5695 36.3221 68.3216 36.2115V43.9685C68.3216 44.8743 68.6814 45.7429 69.3219 46.3834C69.9624 47.0239 70.831 47.3837 71.7368 47.3837H79.4938C79.3832 47.1358 79.229 46.9099 79.0384 46.7166ZM82.3352 84.3699L77.299 79.3246C78.4291 77.4107 78.8223 75.1502 78.4047 72.9671C77.9871 70.784 76.7874 68.8282 75.0307 67.4665C73.274 66.1048 71.0809 65.4307 68.8626 65.5706C66.6443 65.7105 64.5533 66.6549 62.9816 68.2266C61.4099 69.7982 60.4656 71.8893 60.3256 74.1076C60.1857 76.3258 60.8598 78.519 62.2215 80.2757C63.5832 82.0324 65.539 83.2321 67.7221 83.6497C69.9052 84.0672 72.1657 83.6741 74.0796 82.5439L79.1249 87.5802C79.3357 87.791 79.586 87.9582 79.8614 88.0722C80.1368 88.1863 80.432 88.245 80.7301 88.245C81.0282 88.245 81.3233 88.1863 81.5987 88.0722C81.8741 87.9582 82.1244 87.791 82.3352 87.5802C82.546 87.3694 82.7132 87.1191 82.8273 86.8437C82.9413 86.5683 83 86.2731 83 85.975C83 85.6769 82.9413 85.3818 82.8273 85.1063C82.7132 84.8309 82.546 84.5807 82.3352 84.3699ZM63.7681 74.705C63.7681 73.5792 64.1019 72.4788 64.7273 71.5427C65.3528 70.6067 66.2417 69.8771 67.2818 69.4463C68.3219 69.0155 69.4663 68.9028 70.5705 69.1224C71.6746 69.342 72.6888 69.8842 73.4848 70.6802C74.2809 71.4762 74.823 72.4904 75.0426 73.5946C75.2622 74.6987 75.1495 75.8431 74.7187 76.8832C74.2879 77.9233 73.5583 78.8122 72.6223 79.4377C71.6863 80.0631 70.5858 80.3969 69.46 80.3969C68.7125 80.3969 67.9724 80.2497 67.2818 79.9637C66.5912 79.6776 65.9638 79.2584 65.4352 78.7298C64.9067 78.2013 64.4874 77.5738 64.2013 76.8832C63.9153 76.1926 63.7681 75.4525 63.7681 74.705Z" fill="white"></path><defs><linearGradient id="paint0_linear_237_233" x1="-29.1266" y1="6.74153" x2="154.13" y2="126.563" gradientUnits="userSpaceOnUse"><stop stop-color="#5A7EE6"></stop><stop offset="1" stop-color="#B95AE6"></stop></linearGradient></defs></svg>