<svg xmlns="http://www.w3.org/2000/svg" width="125" height="125" viewBox="0 0 125 125" fill="none"><rect width="124.027" height="124.027" rx="62.0134" fill="url(#paint0_linear_237_234)"></rect><path d="M57.3822 63.7333H67.7822V67.2H57.3822V63.7333Z" fill="white"></path><path d="M80.9993 67.2H71.2489V68.9334C71.2489 69.8913 70.4735 70.6667 69.5156 70.6667H55.6489C54.6909 70.6667 53.9156 69.8913 53.9156 68.9334V67.2H44.1651C43.0737 67.2009 42.0097 66.8579 41.1243 66.2198C40.2388 65.5817 39.5769 64.6809 39.2324 63.6453L33 44.9452V82.8C33 85.6673 35.3328 88 38.2 88H86.9644C89.8317 88 92.1644 85.6672 92.1644 82.8V44.9466L85.9316 63.6453C85.5873 64.6809 84.9255 65.5818 84.0401 66.2199C83.1547 66.858 82.0908 67.2009 80.9995 67.2H80.9993Z" fill="white"></path><path d="M69.5156 36H55.6489C52.7817 36 50.4489 38.3328 50.4489 41.2V42.9333H35.9824L42.5199 62.5484C42.635 62.8936 42.8558 63.1939 43.1511 63.4066C43.4464 63.6192 43.8011 63.7336 44.165 63.7333H53.9156V62C53.9156 61.042 54.691 60.2667 55.6489 60.2667H69.5156C70.4736 60.2667 71.2489 61.042 71.2489 62V63.7333H80.9994C81.7459 63.7333 82.4077 63.2576 82.6447 62.5484L89.1826 42.9333H74.7156V41.2C74.7156 38.3327 72.3829 36 69.5156 36ZM53.9156 42.9333V41.2C53.9156 40.2435 54.6925 39.4667 55.6489 39.4667H69.5156C70.4721 39.4667 71.2489 40.2435 71.2489 41.2V42.9333H53.9156Z" fill="white"></path><defs><linearGradient id="paint0_linear_237_234" x1="-5.43372" y1="-6.38875" x2="163.735" y2="35.3883" gradientUnits="userSpaceOnUse"><stop stop-color="#018085"></stop><stop offset="1" stop-color="#019298"></stop></linearGradient></defs></svg>