<svg xmlns="http://www.w3.org/2000/svg" width="125" height="125" viewBox="0 0 125 125" fill="none"><rect width="124.027" height="124.027" rx="62.0134" fill="url(#paint0_linear_237_236)"></rect><path fill-rule="evenodd" clip-rule="evenodd" d="M74.1628 82.6229V86.0751C74.1628 86.6209 73.9459 87.1444 73.56 87.5304C73.174 87.9164 72.6505 88.1332 72.1046 88.1332C71.5588 88.1332 71.0353 87.9164 70.6493 87.5304C70.2633 87.1444 70.0465 86.6209 70.0465 86.0751V82.6448H73.4767C73.7072 82.6448 73.935 82.6366 74.1628 82.6229ZM70.0465 82.6448H51.5232C48.794 82.6448 46.1765 81.5606 44.2466 79.6308C42.3167 77.7009 41.2325 75.0834 41.2325 72.3541V63.8965L56.9128 72.5599C58.6302 73.484 60.5499 73.9676 62.5 73.9676C64.4501 73.9676 66.3698 73.484 68.0872 72.5599L70.0465 71.4787V82.6448ZM74.1628 69.2038L83.7674 63.8965V72.3541C83.7677 74.9648 82.7757 77.478 80.9923 79.3846C79.209 81.2912 76.7676 82.4488 74.1628 82.6229V69.2038Z" fill="white"></path><path fill-rule="evenodd" clip-rule="evenodd" d="M70.0465 68.3421L66.759 70.1588C65.4502 70.864 63.9867 71.2331 62.5 71.2331C61.0133 71.2331 59.5498 70.864 58.241 70.1588L35.4259 57.552C33.8727 56.693 33 55.1892 33 53.6168C33 52.0417 33.8727 50.5378 35.4259 49.6817L58.241 37.0721C59.5503 36.3683 61.0136 36 62.5 36C63.9864 36 65.4497 36.3683 66.759 37.0721L89.5741 49.6817C91.1273 50.5378 92 52.0417 92 53.6168C92 55.1892 91.1273 56.693 89.5741 57.552L74.1628 66.0672V64.1216C74.163 63.8513 74.1098 63.5837 74.0062 63.3341C73.9026 63.0845 73.7506 62.8578 73.5591 62.6671L63.9544 53.0625C63.7634 52.8715 63.5367 52.72 63.2871 52.6166C63.0376 52.5133 62.7701 52.46 62.5 52.46C62.2299 52.46 61.9624 52.5133 61.7129 52.6166C61.4633 52.72 61.2366 52.8715 61.0456 53.0625C60.8546 53.2535 60.7031 53.4802 60.5997 53.7298C60.4963 53.9793 60.4431 54.2468 60.4431 54.5169C60.4431 54.787 60.4963 55.0545 60.5997 55.304C60.7031 55.5536 60.8546 55.7803 61.0456 55.9713L70.0465 64.975V68.3421Z" fill="white"></path><defs><linearGradient id="paint0_linear_237_236" x1="-19.3521" y1="4.15302" x2="140.452" y2="118.639" gradientUnits="userSpaceOnUse"><stop stop-color="#FFC24A"></stop><stop offset="1" stop-color="#FF814A"></stop></linearGradient></defs></svg>